# Blender 4.4.3
# www.blender.org
mtllib AnthroCat.mtl
o Cube.001
v -0.121594 0.037841 0.121594
v -0.069778 0.460901 0.069778
v -0.121594 0.037841 -0.121594
v -0.069778 0.460901 -0.069778
v 0.121594 0.037841 0.121594
v 0.069778 0.460901 0.069778
v 0.121594 0.037841 -0.121594
v 0.069778 0.460901 -0.069778
v -0.128695 0.028380 -0.072883
v -0.128695 0.028380 -0.000000
v -0.128695 0.028380 0.072883
v -0.116447 0.124685 0.116447
v -0.099965 0.249371 0.099965
v -0.083483 0.374056 0.083483
v -0.071235 0.470361 0.039920
v -0.071235 0.470361 0.000000
v -0.071235 0.470361 -0.039920
v -0.083483 0.374056 -0.083483
v -0.099965 0.249371 -0.099965
v -0.116447 0.124685 -0.116447
v 0.072883 0.028380 -0.128695
v 0.000000 0.028380 -0.128695
v -0.072883 0.028380 -0.128695
v -0.039920 0.470361 -0.071235
v 0.000000 0.470361 -0.071235
v 0.039920 0.470361 -0.071235
v 0.083483 0.374056 -0.083483
v 0.099965 0.249371 -0.099965
v 0.116447 0.124685 -0.116447
v 0.128695 0.028380 0.072883
v 0.128695 0.028380 0.000000
v 0.128695 0.028380 -0.072883
v 0.071235 0.470361 -0.039920
v 0.071235 0.470361 0.000000
v 0.071235 0.470361 0.039920
v 0.083483 0.374056 0.083483
v 0.099965 0.249371 0.099965
v 0.116447 0.124685 0.116447
v -0.072883 0.028380 0.128695
v 0.000000 0.028380 0.128695
v 0.072883 0.028380 0.128695
v 0.039920 0.470361 0.071235
v -0.000000 0.470361 0.071235
v -0.039920 0.470361 0.071235
v 0.037803 0.498741 -0.037803
v 0.037803 0.498741 0.000000
v 0.037803 0.498741 0.037803
v 0.000000 0.498741 -0.037803
v 0.000000 0.498741 0.000000
v -0.000000 0.498741 0.037803
v -0.037803 0.498741 -0.037803
v -0.037803 0.498741 0.000000
v -0.037803 0.498741 0.037803
v -0.075000 0.000000 -0.075000
v -0.075000 0.000000 0.000000
v -0.075000 0.000000 0.075000
v 0.000000 0.000000 -0.075000
v 0.000000 0.000000 0.000000
v 0.000000 0.000000 0.075000
v 0.075000 0.000000 -0.075000
v 0.075000 0.000000 0.000000
v 0.075000 0.000000 0.075000
v 0.065701 0.124685 0.131401
v 0.000000 0.124685 0.131401
v -0.065701 0.124685 0.131401
v 0.056401 0.249371 0.112803
v 0.000000 0.249371 0.112803
v -0.056401 0.249371 0.112803
v 0.047102 0.374056 0.094204
v 0.000000 0.374056 0.094204
v -0.047102 0.374056 0.094204
v 0.131401 0.124685 -0.065701
v 0.131401 0.124685 0.000000
v 0.131401 0.124685 0.065701
v 0.112803 0.249371 -0.056401
v 0.112803 0.249371 0.000000
v 0.112803 0.249371 0.056401
v 0.094204 0.374056 -0.047102
v 0.094204 0.374056 0.000000
v 0.094204 0.374056 0.047102
v -0.065701 0.124685 -0.131401
v 0.000000 0.124685 -0.131401
v 0.065701 0.124685 -0.131401
v -0.056401 0.249371 -0.112803
v 0.000000 0.249371 -0.112803
v 0.056401 0.249371 -0.112803
v -0.047102 0.374056 -0.094204
v 0.000000 0.374056 -0.094204
v 0.047102 0.374056 -0.094204
v -0.131401 0.124685 0.065701
v -0.131401 0.124685 -0.000000
v -0.131401 0.124685 -0.065701
v -0.112803 0.249371 0.056401
v -0.112803 0.249371 -0.000000
v -0.112803 0.249371 -0.056401
v -0.094204 0.374056 0.047102
v -0.094204 0.374056 -0.000000
v -0.094204 0.374056 -0.047102
vn -0.9547 0.2147 -0.2062
vn 0.2062 0.2147 -0.9547
vn 0.9547 0.2147 0.2062
vn -0.2062 0.2147 0.9547
vn 0.3521 -0.8672 0.3521
vn -0.4538 0.7669 0.4538
vn 0.4538 0.7669 0.4538
vn -0.0000 0.7623 0.6472
vn 0.4538 0.7669 -0.4538
vn 0.6472 0.7623 -0.0000
vn 0.6472 0.7624 -0.0000
vn -0.0000 0.7623 -0.6472
vn -0.0000 1.0000 -0.0000
vn -0.4538 0.7669 -0.4538
vn -0.6472 0.7623 -0.0000
vn -0.3521 -0.8672 0.3521
vn -0.0000 -0.8841 0.4673
vn -0.3521 -0.8672 -0.3521
vn -0.4673 -0.8841 -0.0000
vn -0.0000 -0.8841 -0.4673
vn -0.0000 -1.0000 -0.0000
vn 0.3521 -0.8672 -0.3521
vn 0.4673 -0.8841 -0.0000
vn -0.2139 0.0274 0.9765
vn -0.2789 0.1620 0.9465
vn 0.2139 0.0274 0.9765
vn -0.0000 -0.0281 0.9996
vn 0.2789 0.1620 0.9465
vn -0.0000 0.1475 0.9891
vn 0.2062 0.2147 0.9547
vn -0.0000 0.2320 0.9727
vn 0.9765 0.0274 0.2139
vn 0.9465 0.1620 0.2789
vn 0.9765 0.0274 -0.2139
vn 0.9996 -0.0281 -0.0000
vn 0.9465 0.1620 -0.2789
vn 0.9891 0.1475 -0.0000
vn 0.9547 0.2147 -0.2062
vn 0.9727 0.2320 -0.0000
vn 0.2139 0.0274 -0.9765
vn 0.2789 0.1620 -0.9465
vn -0.2139 0.0274 -0.9765
vn -0.0000 -0.0281 -0.9996
vn -0.2789 0.1620 -0.9465
vn -0.0000 0.1475 -0.9891
vn -0.2062 0.2147 -0.9547
vn -0.0000 0.2320 -0.9727
vn -0.9765 0.0274 -0.2139
vn -0.9465 0.1620 -0.2789
vn -0.9765 0.0274 0.2139
vn -0.9996 -0.0281 -0.0000
vn -0.9465 0.1620 0.2789
vn -0.9891 0.1475 -0.0000
vn -0.9547 0.2147 0.2062
vn -0.9727 0.2320 -0.0000
vt 0.562500 0.187500
vt 0.625000 0.187500
vt 0.625000 0.250000
vt 0.562500 0.250000
vt 0.562500 0.437500
vt 0.625000 0.437500
vt 0.625000 0.500000
vt 0.562500 0.500000
vt 0.562500 0.687500
vt 0.625000 0.687500
vt 0.625000 0.750000
vt 0.562500 0.750000
vt 0.562500 0.937500
vt 0.625000 0.937500
vt 0.625000 1.000000
vt 0.562500 1.000000
vt 0.312500 0.687500
vt 0.375000 0.687500
vt 0.375000 0.750000
vt 0.312500 0.750000
vt 0.812500 0.687500
vt 0.875000 0.687500
vt 0.875000 0.750000
vt 0.812500 0.750000
vt 0.687500 0.687500
vt 0.687500 0.750000
vt 0.750000 0.687500
vt 0.750000 0.750000
vt 0.687500 0.500000
vt 0.687500 0.562500
vt 0.625000 0.562500
vt 0.687500 0.625000
vt 0.625000 0.625000
vt 0.750000 0.500000
vt 0.750000 0.562500
vt 0.750000 0.625000
vt 0.812500 0.500000
vt 0.812500 0.562500
vt 0.812500 0.625000
vt 0.875000 0.500000
vt 0.875000 0.562500
vt 0.875000 0.625000
vt 0.125000 0.687500
vt 0.187500 0.687500
vt 0.187500 0.750000
vt 0.125000 0.750000
vt 0.250000 0.687500
vt 0.250000 0.750000
vt 0.125000 0.500000
vt 0.187500 0.500000
vt 0.187500 0.562500
vt 0.125000 0.562500
vt 0.187500 0.625000
vt 0.125000 0.625000
vt 0.250000 0.500000
vt 0.250000 0.562500
vt 0.250000 0.625000
vt 0.312500 0.500000
vt 0.312500 0.562500
vt 0.312500 0.625000
vt 0.375000 0.500000
vt 0.375000 0.562500
vt 0.375000 0.625000
vt 0.375000 0.937500
vt 0.437500 0.937500
vt 0.437500 1.000000
vt 0.375000 1.000000
vt 0.500000 0.937500
vt 0.500000 1.000000
vt 0.437500 0.750000
vt 0.437500 0.812500
vt 0.375000 0.812500
vt 0.437500 0.875000
vt 0.375000 0.875000
vt 0.500000 0.750000
vt 0.500000 0.812500
vt 0.500000 0.875000
vt 0.562500 0.812500
vt 0.562500 0.875000
vt 0.625000 0.812500
vt 0.625000 0.875000
vt 0.437500 0.687500
vt 0.500000 0.687500
vt 0.437500 0.500000
vt 0.437500 0.562500
vt 0.437500 0.625000
vt 0.500000 0.500000
vt 0.500000 0.562500
vt 0.500000 0.625000
vt 0.562500 0.562500
vt 0.562500 0.625000
vt 0.375000 0.437500
vt 0.437500 0.437500
vt 0.500000 0.437500
vt 0.375000 0.250000
vt 0.437500 0.250000
vt 0.437500 0.312500
vt 0.375000 0.312500
vt 0.437500 0.375000
vt 0.375000 0.375000
vt 0.500000 0.250000
vt 0.500000 0.312500
vt 0.500000 0.375000
vt 0.562500 0.312500
vt 0.562500 0.375000
vt 0.625000 0.312500
vt 0.625000 0.375000
vt 0.375000 0.187500
vt 0.437500 0.187500
vt 0.500000 0.187500
vt 0.375000 0.000000
vt 0.437500 0.000000
vt 0.437500 0.062500
vt 0.375000 0.062500
vt 0.437500 0.125000
vt 0.375000 0.125000
vt 0.500000 0.000000
vt 0.500000 0.062500
vt 0.500000 0.125000
vt 0.562500 0.000000
vt 0.562500 0.062500
vt 0.562500 0.125000
vt 0.625000 0.000000
vt 0.625000 0.062500
vt 0.625000 0.125000
s 0
f 98/1/1 17/2/1 4/3/1 18/4/1
f 89/5/2 26/6/2 8/7/2 27/8/2
f 80/9/3 35/10/3 6/11/3 36/12/3
f 71/13/4 44/14/4 2/15/4 14/16/4
f 62/17/5 30/18/5 5/19/5 41/20/5
f 53/21/6 15/22/6 2/23/6 44/24/6
f 35/10/7 47/25/7 42/26/7 6/11/7
f 47/25/8 50/27/8 43/28/8 42/26/8
f 50/27/8 53/21/8 44/24/8 43/28/8
f 8/7/9 26/29/9 45/30/9 33/31/9
f 33/31/10 45/30/10 46/32/10 34/33/10
f 34/33/11 46/32/11 47/25/11 35/10/11
f 26/29/12 25/34/12 48/35/12 45/30/12
f 45/30/13 48/35/13 49/36/13 46/32/13
f 46/32/13 49/36/13 50/27/13 47/25/13
f 25/34/12 24/37/12 51/38/12 48/35/12
f 48/35/13 51/38/13 52/39/13 49/36/13
f 49/36/13 52/39/13 53/21/13 50/27/13
f 24/37/14 4/40/14 17/41/14 51/38/14
f 51/38/15 17/41/15 16/42/15 52/39/15
f 52/39/15 16/42/15 15/22/15 53/21/15
f 11/43/16 56/44/16 39/45/16 1/46/16
f 56/44/17 59/47/17 40/48/17 39/45/17
f 59/47/17 62/17/17 41/20/17 40/48/17
f 3/49/18 23/50/18 54/51/18 9/52/18
f 9/52/19 54/51/19 55/53/19 10/54/19
f 10/54/19 55/53/19 56/44/19 11/43/19
f 23/50/20 22/55/20 57/56/20 54/51/20
f 54/51/21 57/56/21 58/57/21 55/53/21
f 55/53/21 58/57/21 59/47/21 56/44/21
f 22/55/20 21/58/20 60/59/20 57/56/20
f 57/56/21 60/59/21 61/60/21 58/57/21
f 58/57/21 61/60/21 62/17/21 59/47/21
f 21/58/22 7/61/22 32/62/22 60/59/22
f 60/59/23 32/62/23 31/63/23 61/60/23
f 61/60/23 31/63/23 30/18/23 62/17/23
f 39/64/24 65/65/24 12/66/24 1/67/24
f 65/65/25 68/68/25 13/69/25 12/66/25
f 68/68/25 71/13/25 14/16/25 13/69/25
f 5/19/26 38/70/26 63/71/26 41/72/26
f 41/72/27 63/71/27 64/73/27 40/74/27
f 40/74/27 64/73/27 65/65/27 39/64/27
f 38/70/28 37/75/28 66/76/28 63/71/28
f 63/71/29 66/76/29 67/77/29 64/73/29
f 64/73/29 67/77/29 68/68/29 65/65/29
f 37/75/28 36/12/28 69/78/28 66/76/28
f 66/76/29 69/78/29 70/79/29 67/77/29
f 67/77/29 70/79/29 71/13/29 68/68/29
f 36/12/30 6/11/30 42/80/30 69/78/30
f 69/78/31 42/80/31 43/81/31 70/79/31
f 70/79/31 43/81/31 44/14/31 71/13/31
f 30/18/32 74/82/32 38/70/32 5/19/32
f 74/82/33 77/83/33 37/75/33 38/70/33
f 77/83/33 80/9/33 36/12/33 37/75/33
f 7/61/34 29/84/34 72/85/34 32/62/34
f 32/62/35 72/85/35 73/86/35 31/63/35
f 31/63/35 73/86/35 74/82/35 30/18/35
f 29/84/36 28/87/36 75/88/36 72/85/36
f 72/85/37 75/88/37 76/89/37 73/86/37
f 73/86/37 76/89/37 77/83/37 74/82/37
f 28/87/36 27/8/36 78/90/36 75/88/36
f 75/88/37 78/90/37 79/91/37 76/89/37
f 76/89/37 79/91/37 80/9/37 77/83/37
f 27/8/38 8/7/38 33/31/38 78/90/38
f 78/90/39 33/31/39 34/33/39 79/91/39
f 79/91/39 34/33/39 35/10/39 80/9/39
f 21/92/40 83/93/40 29/84/40 7/61/40
f 83/93/41 86/94/41 28/87/41 29/84/41
f 86/94/41 89/5/41 27/8/41 28/87/41
f 3/95/42 20/96/42 81/97/42 23/98/42
f 23/98/43 81/97/43 82/99/43 22/100/43
f 22/100/43 82/99/43 83/93/43 21/92/43
f 20/96/44 19/101/44 84/102/44 81/97/44
f 81/97/45 84/102/45 85/103/45 82/99/45
f 82/99/45 85/103/45 86/94/45 83/93/45
f 19/101/44 18/4/44 87/104/44 84/102/44
f 84/102/45 87/104/45 88/105/45 85/103/45
f 85/103/45 88/105/45 89/5/45 86/94/45
f 18/4/46 4/3/46 24/106/46 87/104/46
f 87/104/47 24/106/47 25/107/47 88/105/47
f 88/105/47 25/107/47 26/6/47 89/5/47
f 9/108/48 92/109/48 20/96/48 3/95/48
f 92/109/49 95/110/49 19/101/49 20/96/49
f 95/110/49 98/1/49 18/4/49 19/101/49
f 1/111/50 12/112/50 90/113/50 11/114/50
f 11/114/51 90/113/51 91/115/51 10/116/51
f 10/116/51 91/115/51 92/109/51 9/108/51
f 12/112/52 13/117/52 93/118/52 90/113/52
f 90/113/53 93/118/53 94/119/53 91/115/53
f 91/115/53 94/119/53 95/110/53 92/109/53
f 13/117/52 14/120/52 96/121/52 93/118/52
f 93/118/53 96/121/53 97/122/53 94/119/53
f 94/119/53 97/122/53 98/1/53 95/110/53
f 14/120/54 2/123/54 15/124/54 96/121/54
f 96/121/55 15/124/55 16/125/55 97/122/55
f 97/122/55 16/125/55 17/2/55 98/1/55
o Cube
v 0.096990 0.453010 0.096990
v 0.096990 0.646990 0.096990
v 0.096990 0.453010 -0.096990
v 0.096990 0.646990 -0.096990
v 0.038540 0.434380 -0.115620
v -0.038540 0.434380 -0.115620
v -0.038540 0.665620 -0.115620
v 0.038540 0.665620 -0.115620
v 0.115620 0.588540 -0.115620
v 0.115620 0.511460 -0.115620
v 0.115620 0.434380 0.038540
v 0.115620 0.434380 -0.038540
v 0.115620 0.665620 -0.038540
v 0.115620 0.665620 0.038540
v 0.115620 0.588540 0.115620
v 0.115620 0.511460 0.115620
v -0.038540 0.434380 0.115620
v 0.038540 0.434380 0.115620
v 0.038540 0.665620 0.115620
v -0.038540 0.665620 0.115620
v 0.050652 0.701955 -0.050652
v 0.050652 0.701955 0.050652
v -0.050652 0.701955 -0.050652
v -0.050652 0.701955 0.050652
v -0.050652 0.398045 -0.050652
v -0.050652 0.398045 0.050652
v 0.050652 0.398045 -0.050652
v 0.050652 0.398045 0.050652
v 0.050652 0.499348 0.151955
v -0.050652 0.499348 0.151955
v 0.050652 0.600652 0.151955
v -0.050652 0.600652 0.151955
v 0.151955 0.499348 -0.050652
v 0.151955 0.499348 0.050652
v 0.151955 0.600652 -0.050652
v 0.151955 0.600652 0.050652
v -0.050652 0.499348 -0.151955
v 0.050652 0.499348 -0.151955
v -0.050652 0.600652 -0.151955
v 0.050652 0.600652 -0.151955
v -0.016884 0.701955 -0.050652
v 0.016884 0.701955 -0.050652
v -0.016884 0.701955 0.050652
v 0.016884 0.701955 0.050652
v 0.016884 0.701955 -0.016884
v 0.016884 0.701955 0.016884
v -0.016884 0.701955 -0.016884
v -0.016884 0.701955 0.016884
v 0.124422 0.733923 -0.038540
v 0.124422 0.733923 0.038540
v 0.086641 0.799301 -0.050652
v 0.086641 0.799301 0.050652
v 0.039556 0.756387 -0.050652
v 0.039556 0.756387 0.050652
v -0.096990 0.453010 0.096990
v -0.096990 0.646990 0.096990
v -0.096990 0.453010 -0.096990
v -0.096990 0.646990 -0.096990
v -0.038540 0.434380 -0.115620
v 0.038540 0.434380 -0.115620
v 0.038540 0.665620 -0.115620
v -0.038540 0.665620 -0.115620
v -0.115620 0.588540 -0.115620
v -0.115620 0.511460 -0.115620
v -0.115620 0.434380 0.038540
v -0.115620 0.434380 -0.038540
v -0.115620 0.665620 -0.038540
v -0.115620 0.665620 0.038540
v -0.115620 0.588540 0.115620
v -0.115620 0.511460 0.115620
v 0.038540 0.434380 0.115620
v -0.038540 0.434380 0.115620
v -0.038540 0.665620 0.115620
v 0.038540 0.665620 0.115620
v -0.050652 0.701955 -0.050652
v -0.050652 0.701955 0.050652
v 0.050652 0.701955 -0.050652
v 0.050652 0.701955 0.050652
v 0.050652 0.398045 -0.050652
v 0.050652 0.398045 0.050652
v -0.050652 0.398045 -0.050652
v -0.050652 0.398045 0.050652
v -0.050652 0.499348 0.151955
v 0.050652 0.499348 0.151955
v -0.050652 0.600652 0.151955
v 0.050652 0.600652 0.151955
v -0.151955 0.499348 -0.050652
v -0.151955 0.499348 0.050652
v -0.151955 0.600652 -0.050652
v -0.151955 0.600652 0.050652
v 0.050652 0.499348 -0.151955
v -0.050652 0.499348 -0.151955
v 0.050652 0.600652 -0.151955
v -0.050652 0.600652 -0.151955
v 0.016884 0.701955 -0.050652
v -0.016884 0.701955 -0.050652
v 0.016884 0.701955 0.050652
v -0.016884 0.701955 0.050652
v -0.016884 0.701955 -0.016884
v -0.016884 0.701955 0.016884
v 0.016884 0.701955 -0.016884
v 0.016884 0.701955 0.016884
v -0.124422 0.733923 -0.038540
v -0.124422 0.733923 0.038540
v -0.086641 0.799301 -0.050652
v -0.086641 0.799301 0.050652
v -0.039556 0.756387 -0.050652
v -0.039556 0.756387 0.050652
vn 0.4544 0.4544 -0.7662
vn 0.7662 0.4544 0.4544
vn 0.4544 -0.7662 0.4544
vn 0.4544 0.7662 0.4544
vn -0.0000 0.8728 0.4881
vn 0.4544 0.7662 -0.4544
vn -0.0000 0.8728 -0.4881
vn -0.0000 -0.8728 0.4881
vn -0.0000 -0.8728 -0.4881
vn -0.0000 -1.0000 -0.0000
vn 0.4544 -0.7662 -0.4544
vn 0.4881 -0.8728 -0.0000
vn 0.4544 -0.4544 0.7662
vn -0.0000 -0.4881 0.8728
vn 0.4881 -0.0000 0.8728
vn -0.0000 -0.0000 1.0000
vn 0.4544 0.4544 0.7662
vn -0.0000 0.4881 0.8728
vn 0.7662 -0.4544 0.4544
vn 0.8728 -0.0000 0.4881
vn 0.7662 -0.4544 -0.4544
vn 0.8728 -0.4881 -0.0000
vn 0.8728 -0.0000 -0.4881
vn 1.0000 -0.0000 -0.0000
vn 0.7662 0.4544 -0.4544
vn 0.8728 0.4881 -0.0000
vn 0.4544 -0.4544 -0.7662
vn 0.4881 -0.0000 -0.8728
vn -0.0000 -0.4881 -0.8728
vn -0.0000 -0.0000 -1.0000
vn -0.0000 0.4881 -0.8728
vn -0.0000 1.0000 -0.0000
vn -0.9231 0.3845 -0.0000
vn 0.8658 0.5004 -0.0000
vn -0.6736 0.7391 -0.0000
vn 0.1826 -0.0494 0.9819
vn 0.9918 -0.1278 -0.0000
vn 0.1826 -0.0494 -0.9819
vn -0.4544 0.4544 -0.7662
vn -0.7662 0.4544 0.4544
vn -0.4544 -0.7662 0.4544
vn -0.4544 0.7662 0.4544
vn -0.4544 0.7662 -0.4544
vn -0.4544 -0.7662 -0.4544
vn -0.4881 -0.8728 -0.0000
vn -0.4544 -0.4544 0.7662
vn -0.4881 -0.0000 0.8728
vn -0.4544 0.4544 0.7662
vn -0.7662 -0.4544 0.4544
vn -0.8728 -0.0000 0.4881
vn -0.7662 -0.4544 -0.4544
vn -0.8728 -0.4881 -0.0000
vn -0.8728 -0.0000 -0.4881
vn -1.0000 -0.0000 -0.0000
vn -0.7662 0.4544 -0.4544
vn -0.8728 0.4881 -0.0000
vn -0.4544 -0.4544 -0.7662
vn -0.4881 -0.0000 -0.8728
vn 0.9231 0.3845 -0.0000
vn -0.8658 0.5004 -0.0000
vn 0.6736 0.7391 -0.0000
vn -0.1826 -0.0494 0.9819
vn -0.9918 -0.1278 -0.0000
vn -0.1826 -0.0494 -0.9819
vt 0.541667 0.416667
vt 0.625000 0.416667
vt 0.625000 0.500000
vt 0.541667 0.500000
vt 0.541667 0.666667
vt 0.625000 0.666667
vt 0.625000 0.750000
vt 0.541667 0.750000
vt 0.291667 0.666667
vt 0.375000 0.666667
vt 0.375000 0.750000
vt 0.291667 0.750000
vt 0.708333 0.666667
vt 0.708333 0.750000
vt 0.736111 0.666667
vt 0.763889 0.666667
vt 0.791667 0.666667
vt 0.791667 0.750000
vt 0.708333 0.500000
vt 0.708333 0.583333
vt 0.625000 0.583333
vt 0.791667 0.500000
vt 0.791667 0.583333
vt 0.763889 0.583333
vt 0.736111 0.583333
vt 0.208333 0.666667
vt 0.208333 0.750000
vt 0.208333 0.500000
vt 0.291667 0.500000
vt 0.291667 0.583333
vt 0.208333 0.583333
vt 0.375000 0.500000
vt 0.375000 0.583333
vt 0.458333 0.750000
vt 0.458333 0.833333
vt 0.375000 0.833333
vt 0.458333 0.916667
vt 0.375000 0.916667
vt 0.541667 0.833333
vt 0.541667 0.916667
vt 0.625000 0.833333
vt 0.625000 0.916667
vt 0.458333 0.666667
vt 0.458333 0.500000
vt 0.458333 0.583333
vt 0.541667 0.583333
vt 0.375000 0.416667
vt 0.458333 0.416667
vt 0.375000 0.333333
vt 0.458333 0.333333
vt 0.541667 0.333333
vt 0.625000 0.333333
vt 0.736111 0.638889
vt 0.763889 0.638889
vt 0.736111 0.611111
vt 0.763889 0.611111
s 0
f 138/126/56 106/127/56 102/128/56 107/129/56
f 134/130/57 112/131/57 100/132/57 113/133/57
f 126/134/58 109/135/58 99/136/58 116/137/58
f 112/131/59 120/138/59 117/139/59 100/132/59
f 120/138/60 142/140/60 141/141/60 122/142/60 118/143/60 117/139/60
f 102/128/61 106/144/61 119/145/61 111/146/61
f 106/144/62 105/147/62 121/148/62 139/149/62 140/150/62 119/145/62
f 124/151/63 126/134/63 116/137/63 115/152/63
f 104/153/64 103/154/64 125/155/64 123/156/64
f 123/156/65 125/155/65 126/134/65 124/151/65
f 103/154/66 101/157/66 110/158/66 125/155/66
f 125/155/67 110/158/67 109/135/67 126/134/67
f 99/136/68 114/159/68 127/160/68 116/161/68
f 116/161/69 127/160/69 128/162/69 115/163/69
f 114/159/70 113/133/70 129/164/70 127/160/70
f 127/160/71 129/164/71 130/165/71 128/162/71
f 113/133/72 100/132/72 117/166/72 129/164/72
f 129/164/73 117/166/73 118/167/73 130/165/73
f 109/135/74 132/168/74 114/159/74 99/136/74
f 132/168/75 134/130/75 113/133/75 114/159/75
f 101/157/76 108/169/76 131/170/76 110/158/76
f 110/158/77 131/170/77 132/168/77 109/135/77
f 108/169/78 107/129/78 133/171/78 131/170/78
f 131/170/79 133/171/79 134/130/79 132/168/79
f 107/129/80 102/128/80 111/146/80 133/171/80
f 133/171/81 111/146/81 112/131/81 134/130/81
f 103/172/82 136/173/82 108/169/82 101/157/82
f 136/173/83 138/126/83 107/129/83 108/169/83
f 104/174/84 135/175/84 136/173/84 103/172/84
f 135/175/85 137/176/85 138/126/85 136/173/85
f 137/176/86 105/177/86 106/127/86 138/126/86
f 144/178/87 146/179/87 141/141/87 142/140/87
f 143/180/88 144/178/88 142/140/88 152/140/88 151/150/88 140/150/88
f 140/150/87 139/149/87 145/181/87 143/180/87
f 143/180/87 145/181/87 146/179/87 144/178/87
f 147/146/89 149/145/89 150/138/89 148/131/89
f 152/140/90 150/138/90 149/145/90 151/150/90
f 112/131/91 148/131/91 150/138/91 120/138/91
f 120/138/71 150/138/71 152/140/71 142/140/71
f 112/131/92 111/146/92 147/146/92 148/131/92
f 119/145/85 140/150/85 151/150/85 149/145/85
f 111/146/93 119/145/93 149/145/93 147/146/93
f 192/126/94 161/129/94 156/128/94 160/127/94
f 188/130/95 167/133/95 154/132/95 166/131/95
f 180/134/96 170/137/96 153/136/96 163/135/96
f 166/131/97 154/132/97 171/139/97 174/138/97
f 174/138/60 171/139/60 172/143/60 176/142/60 195/141/60 196/140/60
f 156/128/98 165/146/98 173/145/98 160/144/98
f 160/144/62 173/145/62 194/150/62 193/149/62 175/148/62 159/147/62
f 178/151/63 169/152/63 170/137/63 180/134/63
f 158/153/64 177/156/64 179/155/64 157/154/64
f 177/156/65 178/151/65 180/134/65 179/155/65
f 157/154/99 179/155/99 164/158/99 155/157/99
f 179/155/100 180/134/100 163/135/100 164/158/100
f 153/136/101 170/161/101 181/160/101 168/159/101
f 170/161/69 169/163/69 182/162/69 181/160/69
f 168/159/102 181/160/102 183/164/102 167/133/102
f 181/160/71 182/162/71 184/165/71 183/164/71
f 167/133/103 183/164/103 171/166/103 154/132/103
f 183/164/73 184/165/73 172/167/73 171/166/73
f 163/135/104 153/136/104 168/159/104 186/168/104
f 186/168/105 168/159/105 167/133/105 188/130/105
f 155/157/106 164/158/106 185/170/106 162/169/106
f 164/158/107 163/135/107 186/168/107 185/170/107
f 162/169/108 185/170/108 187/171/108 161/129/108
f 185/170/109 186/168/109 188/130/109 187/171/109
f 161/129/110 187/171/110 165/146/110 156/128/110
f 187/171/111 188/130/111 166/131/111 165/146/111
f 157/172/112 155/157/112 162/169/112 190/173/112
f 190/173/113 162/169/113 161/129/113 192/126/113
f 158/174/84 157/172/84 190/173/84 189/175/84
f 189/175/85 190/173/85 192/126/85 191/176/85
f 191/176/86 192/126/86 160/127/86 159/177/86
f 198/178/87 196/140/87 195/141/87 200/179/87
f 197/180/114 194/150/114 205/150/114 206/140/114 196/140/114 198/178/114
f 194/150/87 197/180/87 199/181/87 193/149/87
f 197/180/87 198/178/87 200/179/87 199/181/87
f 201/146/115 202/131/115 204/138/115 203/145/115
f 206/140/116 205/150/116 203/145/116 204/138/116
f 166/131/117 174/138/117 204/138/117 202/131/117
f 174/138/71 196/140/71 206/140/71 204/138/71
f 166/131/118 202/131/118 201/146/118 165/146/118
f 173/145/85 203/145/85 205/150/85 194/150/85
f 165/146/119 201/146/119 203/145/119 173/145/119
